<svg id="visual" viewBox="0 0 900 600" width="900" height="600" xmlns="http://www.w3.org/2000/svg" xmlns:xlink="http://www.w3.org/1999/xlink" version="1.1"><path d="M0 91L82 91L82 67L164 67L164 145L245 145L245 127L327 127L327 127L409 127L409 61L491 61L491 175L573 175L573 121L655 121L655 121L736 121L736 55L818 55L818 157L900 157L900 151L900 0L900 0L818 0L818 0L736 0L736 0L655 0L655 0L573 0L573 0L491 0L491 0L409 0L409 0L327 0L327 0L245 0L245 0L164 0L164 0L82 0L82 0L0 0Z" fill="#222222"></path><path d="M0 175L82 175L82 115L164 115L164 247L245 247L245 223L327 223L327 175L409 175L409 109L491 109L491 211L573 211L573 181L655 181L655 193L736 193L736 97L818 97L818 235L900 235L900 211L900 149L900 155L818 155L818 53L736 53L736 119L655 119L655 119L573 119L573 173L491 173L491 59L409 59L409 125L327 125L327 125L245 125L245 143L164 143L164 65L82 65L82 89L0 89Z" fill="#262626"></path><path d="M0 397L82 397L82 265L164 265L164 397L245 397L245 433L327 433L327 415L409 415L409 283L491 283L491 313L573 313L573 355L655 355L655 307L736 307L736 211L818 211L818 397L900 397L900 325L900 209L900 233L818 233L818 95L736 95L736 191L655 191L655 179L573 179L573 209L491 209L491 107L409 107L409 173L327 173L327 221L245 221L245 245L164 245L164 113L82 113L82 173L0 173Z" fill="#2a2a2a"></path><path d="M0 469L82 469L82 379L164 379L164 445L245 445L245 499L327 499L327 463L409 463L409 403L491 403L491 391L573 391L573 409L655 409L655 367L736 367L736 325L818 325L818 481L900 481L900 397L900 323L900 395L818 395L818 209L736 209L736 305L655 305L655 353L573 353L573 311L491 311L491 281L409 281L409 413L327 413L327 431L245 431L245 395L164 395L164 263L82 263L82 395L0 395Z" fill="#2e2e2e"></path><path d="M0 601L82 601L82 601L164 601L164 601L245 601L245 601L327 601L327 601L409 601L409 601L491 601L491 601L573 601L573 601L655 601L655 601L736 601L736 601L818 601L818 601L900 601L900 601L900 395L900 479L818 479L818 323L736 323L736 365L655 365L655 407L573 407L573 389L491 389L491 401L409 401L409 461L327 461L327 497L245 497L245 443L164 443L164 377L82 377L82 467L0 467Z" fill="#333333"></path></svg>