<svg id="visual" viewBox="0 0 900 600" width="900" height="600" xmlns="http://www.w3.org/2000/svg" xmlns:xlink="http://www.w3.org/1999/xlink" version="1.1"><rect x="0" y="0" width="900" height="600" fill="#333333"></rect><path d="M309 0L304.2 14.3C299.3 28.7 289.7 57.3 267 85.8C244.3 114.3 208.7 142.7 217.3 171.2C226 199.7 279 228.3 305 257C331 285.7 330 314.3 320.5 343C311 371.7 293 400.3 293.5 428.8C294 457.3 313 485.7 307.8 514.2C302.7 542.7 273.3 571.3 258.7 585.7L244 600L0 600L0 585.7C0 571.3 0 542.7 0 514.2C0 485.7 0 457.3 0 428.8C0 400.3 0 371.7 0 343C0 314.3 0 285.7 0 257C0 228.3 0 199.7 0 171.2C0 142.7 0 114.3 0 85.8C0 57.3 0 28.7 0 14.3L0 0Z" fill="#222222" stroke-linecap="round" stroke-linejoin="miter"></path></svg>